<svg width="946" height="42" viewBox="0 0 946 42" fill="none" xmlns="http://www.w3.org/2000/svg">
<path d="M813.21 17.719C816.348 17.719 817.054 19.082 817.054 20.782C817.054 22.584 816.2 23.875 813.223 23.875C810.265 23.875 809.41 22.659 809.41 20.782C809.41 18.935 810.342 17.719 813.21 17.719Z" fill="#636363"/>
<path d="M846.004 17.719C849.142 17.719 849.848 19.082 849.848 20.782C849.848 22.584 848.993 23.875 846.017 23.875C843.06 23.875 842.204 22.659 842.204 20.782C842.204 18.935 843.136 17.719 846.004 17.719Z" fill="#636363"/>
<path fill-rule="evenodd" clip-rule="evenodd" d="M785.427 38.5V3.047H944.005V38.5H785.427ZM861.005 36.5H942.005V5.047H861.005V36.5ZM813.225 26.893C818.796 26.893 821.138 24.49 821.138 20.737C821.138 16.923 818.5 14.656 813.225 14.656C808.031 14.656 805.297 17.118 805.297 20.737C805.297 24.821 808.165 26.893 813.225 26.893ZM793.856 14.926V26.713H805.1V23.574H797.924V14.926H793.856ZM833.722 26.713L833.617 25.571C832.256 26.5422 830.6 27.0096 828.932 26.893C826.425 26.893 824.337 26.142 823.166 24.626C822.394 23.5192 822.004 22.1906 822.055 20.842C822.011 19.5217 822.415 18.2253 823.2 17.163C824.385 15.692 826.533 14.716 829.731 14.716C833.41 14.716 835.572 15.842 836.502 17.734C836.702 18.1796 836.819 18.6576 836.848 19.145H832.956C832.858 18.8488 832.675 18.5878 832.431 18.394C831.656 17.88 830.73 17.6423 829.803 17.719C829.259 17.6531 828.708 17.7033 828.185 17.8664C827.662 18.0295 827.18 18.3017 826.77 18.665C826.305 19.302 826.086 20.0862 826.155 20.872C826.101 21.6217 826.302 22.3677 826.725 22.989C827.138 23.3743 827.63 23.6661 828.166 23.8449C828.703 24.0236 829.271 24.0851 829.833 24.025C830.949 24.1158 832.058 23.7715 832.926 23.064C833.112 22.8308 833.241 22.5566 833.301 22.264H829.113V19.731H836.95V26.713H833.722ZM846.019 26.893C851.589 26.893 853.932 24.49 853.932 20.737C853.932 16.923 851.29 14.656 846.019 14.656C840.825 14.656 838.091 17.118 838.091 20.737C838.091 24.821 840.959 26.893 846.019 26.893Z" fill="#636363"/>
<path d="M867.857 26.668V14.881H870.757V26.668H867.857Z" fill="#636363"/>
<path d="M885.649 21.743C884.914 22.704 883.649 23.143 881.866 23.154C881.49 23.154 876.505 23.139 876.505 23.139V26.668H873.667V14.881H881.867C882.524 14.8115 883.189 14.8812 883.817 15.0855C884.446 15.2899 885.024 15.6243 885.515 16.067C886.163 16.9112 886.478 17.9638 886.401 19.025C886.467 19.9902 886.202 20.9491 885.649 21.743ZM883.322 17.9C883.022 17.45 882.375 17.2 881.28 17.2H876.49V20.788H881.249C882.42 20.788 883.037 20.548 883.322 20.082C883.491 19.7537 883.564 19.384 883.532 19.016C883.557 18.6322 883.485 18.2483 883.322 17.9Z" fill="#636363"/>
<path d="M894.764 26.848C889.418 26.848 887.782 24.848 887.782 22.869H890.815C890.815 23.845 892.151 24.581 894.899 24.581C897.631 24.581 898.352 24.1 898.352 23.319C898.352 22.448 897.812 22.178 895.274 21.893C894.774 21.848 893.413 21.683 892.902 21.608C889.302 21.202 887.916 20.136 887.916 18.229C887.916 16.217 889.944 14.701 894.343 14.701C899.118 14.701 900.95 16.578 900.95 18.53H897.95C897.95 17.539 896.824 16.968 894.166 16.968C891.433 16.968 890.848 17.343 890.848 18.079C890.848 18.845 891.448 19.085 894.348 19.43C895.009 19.521 896.48 19.686 896.885 19.73C899.949 20.045 901.33 21.156 901.33 23.123C901.325 25.466 899.223 26.848 894.764 26.848Z" fill="#636363"/>
<path d="M909.87 26.833C905.952 26.833 903.399 25.286 903.399 22.033V14.881H906.266V22.073C906.266 23.56 907.483 24.55 909.99 24.55C912.257 24.55 913.609 23.62 913.609 22.073V14.881H916.447V22.3C916.447 25.257 914.074 26.833 909.87 26.833Z" fill="#636363"/>
<path d="M931.987 26.668V18.8L928.308 26.668H925.516L921.942 18.8V26.668H919.242V14.881H922.9L926.954 23.86L931.098 14.881H934.698V26.668H931.987Z" fill="#636363"/>
<path d="M669.693 27.374H664.573V13.686H669.693V27.374ZM665.073 26.874H669.193V14.186H665.073V26.874ZM676.817 27.374H671.8V13.686H682.282C683.784 13.5644 685.279 13.986 686.496 14.874C687.02 15.3533 687.426 15.9472 687.683 16.6093C687.939 17.2714 688.039 17.9838 687.975 18.691C688.05 19.913 687.661 21.1182 686.886 22.066C685.969 23.118 684.443 23.66 682.351 23.679C681.824 23.693 677.875 23.679 676.82 23.679L676.817 27.374ZM672.297 26.874H676.317V23.174H676.568C676.619 23.174 681.746 23.19 682.339 23.174C684.288 23.157 685.689 22.674 686.508 21.731C687.198 20.8734 687.54 19.7881 687.468 18.69C687.53 18.0564 687.444 17.4171 687.219 16.8217C686.993 16.2264 686.634 15.691 686.168 15.257C685.04 14.4471 683.659 14.0669 682.275 14.185H672.3L672.297 26.874ZM681.22 20.604H676.283V16.878H681.253C681.605 16.8293 681.964 16.8704 682.296 16.9975C682.629 17.1246 682.923 17.3336 683.153 17.605C683.362 17.9519 683.46 18.354 683.435 18.758C683.454 19.1331 683.373 19.5065 683.2 19.84C682.963 20.1259 682.656 20.3459 682.309 20.479C681.963 20.6121 681.588 20.6538 681.22 20.6V20.604ZM676.783 20.104H681.22C682.04 20.104 682.548 19.933 682.773 19.581C682.897 19.3251 682.953 19.0417 682.936 18.758C682.958 18.46 682.893 18.1621 682.75 17.9L682.744 17.891C682.506 17.541 682.033 17.378 681.253 17.378H676.783V20.104ZM697.1 27.576C692.61 27.576 689.93 26.461 688.909 24.168C688.742 23.7251 688.629 23.2638 688.571 22.794L688.527 22.506H693.869L693.904 22.716C693.945 22.9292 694.036 23.1299 694.168 23.302C694.379 23.557 695.083 23.985 697.419 23.985C700.227 23.985 700.227 23.492 700.227 23.227C700.227 22.78 699.902 22.627 697.612 22.383L697.177 22.342C696.315 22.261 695.225 22.158 694.727 22.115C690.527 21.735 688.652 20.43 688.652 17.885C688.652 15.212 691.843 13.485 696.782 13.485C700.811 13.485 703.407 14.547 704.496 16.644C704.754 17.1318 704.928 17.66 705.009 18.206L705.044 18.487H699.696L699.674 18.261C699.653 18.0844 699.578 17.9187 699.458 17.787C699.258 17.519 698.626 17.076 696.664 17.076C694.255 17.076 693.923 17.384 693.923 17.716C693.923 18.159 694.684 18.316 697.123 18.577C698.14 18.66 699.775 18.828 700.335 18.896C703.856 19.278 705.427 20.551 705.427 23.025C705.428 25.1 703.983 27.576 697.1 27.576ZM689.111 23.006C689.161 23.3358 689.247 23.659 689.368 23.97C690.298 26.059 692.828 27.076 697.1 27.076C700.672 27.076 704.931 26.376 704.931 23.025C704.931 20.832 703.541 19.746 700.282 19.393C699.722 19.325 698.097 19.158 697.082 19.074C694.482 18.792 693.425 18.642 693.425 17.716C693.425 16.758 694.564 16.576 696.666 16.576C698.327 16.576 699.4 16.876 699.855 17.481C699.979 17.63 700.073 17.8019 700.131 17.987H704.465C704.378 17.6002 704.24 17.2267 704.055 16.876C703.055 14.957 700.612 13.985 696.784 13.985C692.149 13.985 689.154 15.516 689.154 17.885C689.154 20.145 690.835 21.261 694.773 21.617C695.273 21.66 696.362 21.763 697.226 21.845L697.664 21.886C699.791 22.11 700.729 22.25 700.729 23.227C700.729 24.279 699.516 24.485 697.421 24.485C695.483 24.485 694.259 24.194 693.786 23.621C693.64 23.4383 693.53 23.2296 693.462 23.006H689.111ZM714.927 27.559C709.707 27.559 706.827 25.448 706.827 21.614V13.686H711.879V21.614C711.879 22.929 713.056 23.683 715.107 23.683C717.067 23.683 718.284 22.896 718.284 21.631V13.686H723.284V22.034C723.289 25.545 720.24 27.559 714.924 27.559H714.927ZM707.327 14.186V21.614C707.327 26.352 712.085 27.059 714.927 27.059C717.865 27.059 722.792 26.406 722.792 22.034V14.186H718.792V21.631C718.792 23.181 717.348 24.183 715.115 24.183C712.781 24.183 711.387 23.223 711.387 21.614V14.186H707.327ZM744.472 27.374H739.704V21.194L737 27.374H732.841L730.165 21.206V27.374H725.38V13.686H731.674L734.944 21.233L738.372 13.686H744.478L744.472 27.374ZM740.204 26.874H743.972V14.186H738.69L734.928 22.465L731.342 14.186H725.876V26.874H729.661V18.8L733.161 26.877H736.661L740.198 18.812L740.204 26.874ZM600.054 13.936H595.5V27.124H608.084V23.613H600.054V13.936ZM617.276 13.636C611.463 13.636 608.406 16.391 608.406 20.436C608.406 25.006 611.615 27.324 617.276 27.324C623.508 27.324 626.129 24.636 626.129 20.436C626.129 16.171 623.172 13.634 617.276 13.634V13.636ZM617.259 17.063C617.655 17.0611 618.05 17.0842 618.443 17.132L613.352 22.223C613.111 21.6781 612.994 21.0866 613.008 20.491C613.008 18.422 614.05 17.061 617.259 17.061V17.063ZM617.276 23.951C616.895 23.9527 616.514 23.9313 616.135 23.887L621.235 18.787C621.467 19.3229 621.578 19.9033 621.56 20.487C621.56 22.5 620.6 23.949 617.276 23.949V23.951ZM635.152 22.151H639.839C639.77 22.4763 639.626 22.781 639.419 23.041C638.447 23.8326 637.207 24.2178 635.958 24.116C635.329 24.1833 634.693 24.1146 634.093 23.9146C633.494 23.7147 632.944 23.3881 632.481 22.957C632.007 22.2619 631.782 21.4271 631.842 20.588C631.765 19.7087 632.01 18.8315 632.531 18.119C633.186 17.379 634.295 17.06 635.925 17.06C636.962 16.9741 637.998 17.2405 638.865 17.816C639.138 18.0331 639.343 18.3249 639.453 18.656H643.8C643.768 18.1105 643.637 17.5753 643.413 17.077C642.372 14.96 639.952 13.7 635.837 13.7C632.258 13.7 629.856 14.792 628.529 16.439C627.653 17.6283 627.203 19.0784 627.252 20.555C627.195 22.065 627.634 23.5521 628.5 24.79C629.811 26.49 632.146 27.326 634.952 27.326C636.818 27.4561 638.67 26.9336 640.193 25.848L640.311 27.124H643.922V19.312H635.152V22.151ZM654.171 13.633C648.359 13.633 645.301 16.388 645.301 20.433C645.301 25.003 648.509 27.321 654.171 27.321C660.404 27.321 663.025 24.633 663.025 20.433C663.025 16.171 660.068 13.634 654.171 13.634V13.633ZM654.155 17.06C654.54 17.0588 654.925 17.0809 655.308 17.126L650.237 22.2C650.004 21.6611 649.89 21.0781 649.904 20.491C649.9 18.422 650.946 17.06 654.155 17.06ZM654.171 23.948C653.78 23.9497 653.389 23.9269 653 23.88L658.117 18.762C658.358 19.305 658.473 19.8953 658.454 20.489C658.456 22.5 657.5 23.949 654.171 23.949V23.948Z" fill="#636363"/>
<g clip-path="url(#clip0_2_149)">
<path d="M282.169 28.1429H285.72V14.9514H282.169V28.1429ZM282.169 12.8943H285.72V9.75714H282.169V12.8943Z" fill="#636363"/>
<path d="M288.008 32.4629H291.559V26.6514H291.611C292.368 27.7829 293.595 28.5286 295.474 28.5286C298.921 28.5286 301.271 25.8286 301.271 21.5601C301.271 17.4457 298.999 14.5914 295.449 14.5914C293.621 14.5914 292.368 15.4401 291.506 16.5972H291.428V14.9514H288.008V32.4629ZM294.718 25.6229C292.603 25.6229 291.481 24.0543 291.481 21.6629C291.481 19.2972 292.368 17.4201 294.587 17.4201C296.78 17.4201 297.668 19.1686 297.668 21.6629C297.668 24.1572 296.519 25.6229 294.718 25.6229Z" fill="#636363"/>
<path d="M308.353 28.5286C311.695 28.5286 313.993 26.9343 313.993 24.2857C313.993 21.2001 311.513 20.5829 309.267 20.1201C307.361 19.7343 305.586 19.6314 305.586 18.5001C305.586 17.5486 306.5 17.0343 307.883 17.0343C309.398 17.0343 310.312 17.5486 310.468 18.9629H313.679C313.419 16.3143 311.46 14.5914 307.936 14.5914C304.881 14.5914 302.479 15.9543 302.479 18.8086C302.479 21.6886 304.829 22.3314 307.231 22.7943C309.058 23.1543 310.755 23.2829 310.755 24.5429C310.755 25.4686 309.868 26.0601 308.301 26.0601C306.708 26.0601 305.612 25.3914 305.377 23.8743H302.088C302.297 26.6772 304.464 28.5286 308.353 28.5286Z" fill="#636363"/>
<path d="M327.473 28.1429V14.9514H323.922V22.5629C323.922 24.3114 322.904 25.5457 321.233 25.5457C319.719 25.5457 319.015 24.6971 319.015 23.1543V14.9514H315.49V23.7457C315.49 26.6257 317.16 28.5029 320.137 28.5029C322.017 28.5029 323.061 27.8086 323.975 26.6H324.053V28.1429H327.473Z" fill="#636363"/>
<path d="M329.77 28.1429H333.32V20.4801C333.32 18.7314 334.287 17.6001 335.723 17.6001C337.028 17.6001 337.785 18.3714 337.785 19.8629V28.1429H341.335V20.4801C341.335 18.7314 342.249 17.6001 343.737 17.6001C345.043 17.6001 345.8 18.3714 345.8 19.8629V28.1429H349.351V19.2714C349.351 16.3914 347.758 14.5914 344.938 14.5914C343.241 14.5914 341.831 15.4657 340.917 16.9057H340.866C340.213 15.5172 338.855 14.5914 337.158 14.5914C335.305 14.5914 333.999 15.5172 333.268 16.7257H333.19V14.9514H329.77V28.1429Z" fill="#636363"/>
<path d="M189.628 28.1429H193.178V9.75714H189.628V28.1429Z" fill="#636363"/>
<path d="M201.86 28.5286C206.011 28.5286 208.857 25.4943 208.857 21.5601C208.857 17.6257 206.011 14.5914 201.86 14.5914C197.709 14.5914 194.863 17.6257 194.863 21.5601C194.863 25.4943 197.709 28.5286 201.86 28.5286ZM201.86 25.8543C199.667 25.8543 198.466 24.1314 198.466 21.5601C198.466 18.9886 199.667 17.2401 201.86 17.2401C204.027 17.2401 205.254 18.9886 205.254 21.5601C205.254 24.1314 204.027 25.8543 201.86 25.8543Z" fill="#636363"/>
<path d="M216.407 32.6429C218.392 32.6429 220.115 32.1801 221.237 31.1514C222.229 30.2514 222.83 28.9914 222.83 27.1401V14.9514H219.41V16.3401H219.358C218.548 15.2343 217.321 14.5914 215.65 14.5914C212.256 14.5914 209.854 17.1114 209.854 21.0457C209.854 25.0314 212.779 27.3457 215.755 27.3457C217.452 27.3457 218.47 26.6772 219.253 25.8029H219.331V27.2429C219.331 29.0429 218.365 29.9943 216.355 29.9943C214.71 29.9943 213.953 29.3514 213.666 28.5286H210.142C210.507 31.1001 212.752 32.6429 216.407 32.6429ZM216.355 24.5429C214.528 24.5429 213.327 23.2314 213.327 20.9943C213.327 18.7829 214.528 17.3943 216.329 17.3943C218.47 17.3943 219.514 19.0401 219.514 20.9686C219.514 22.9229 218.6 24.5429 216.355 24.5429Z" fill="#636363"/>
<path d="M231.46 28.5286C235.611 28.5286 238.457 25.4943 238.457 21.5601C238.457 17.6257 235.611 14.5914 231.46 14.5914C227.309 14.5914 224.464 17.6257 224.464 21.5601C224.464 25.4943 227.309 28.5286 231.46 28.5286ZM231.46 25.8543C229.267 25.8543 228.066 24.1314 228.066 21.5601C228.066 18.9886 229.267 17.2401 231.46 17.2401C233.627 17.2401 234.854 18.9886 234.854 21.5601C234.854 24.1314 233.627 25.8543 231.46 25.8543Z" fill="#636363"/>
<path d="M350.641 12.7857C350.641 12.194 351.128 11.7143 351.729 11.7143H353.904C354.505 11.7143 354.992 12.194 354.992 12.7857C354.992 13.3775 354.505 13.8572 353.904 13.8572H351.729C351.128 13.8572 350.641 13.3775 350.641 12.7857Z" fill="#636363"/>
<path fill-rule="evenodd" clip-rule="evenodd" d="M259.99 6C268.4 6 275.219 12.7157 275.219 21C275.219 29.2843 268.4 36 259.99 36C251.579 36 244.76 29.2843 244.76 21C244.76 12.7157 251.579 6 259.99 6ZM259.439 7.12244C257.702 7.36327 256.048 8.73831 254.763 11.0381C254.391 11.7051 254.055 12.4421 253.762 13.2378C255.508 12.8056 257.426 12.5508 259.439 12.5114V7.12244ZM252.475 13.5981C252.839 12.4722 253.285 11.4363 253.799 10.5155C254.435 9.37544 255.191 8.39096 256.042 7.63483C251.413 8.95892 247.765 12.5526 246.42 17.1118C247.188 16.2733 248.187 15.5292 249.345 14.9022C250.28 14.3957 251.332 13.9568 252.475 13.5981ZM252.109 14.8658C251.67 16.5857 251.411 18.475 251.371 20.4578H245.9C246.145 18.7465 247.541 17.1171 249.876 15.8523C250.553 15.4854 251.301 15.1544 252.109 14.8658ZM252.473 20.4578C252.518 18.294 252.834 16.2626 253.358 14.4677C255.18 13.9523 257.242 13.6407 259.439 13.5959V15.9381C258.62 18.0047 256.948 19.6509 254.85 20.4578H252.473ZM251.371 21.5422H245.9C246.145 23.2535 247.541 24.8828 249.876 26.1477C250.553 26.5146 251.301 26.8456 252.109 27.1342C251.67 25.4143 251.411 23.525 251.371 21.5422ZM253.358 27.5324C252.834 25.7374 252.518 23.706 252.473 21.5422H254.85C256.948 22.3491 258.62 23.9953 259.439 26.0619V28.4041C257.242 28.3593 255.18 28.0478 253.358 27.5324ZM252.475 28.4019C251.332 28.0432 250.28 27.6043 249.345 27.0978C248.187 26.4708 247.188 25.7267 246.42 24.8882C247.765 29.4474 251.413 33.0411 256.042 34.3652C255.191 33.609 254.435 32.6246 253.799 31.4845C253.285 30.5637 252.839 29.5278 252.475 28.4019ZM259.439 34.8775C257.702 34.6367 256.048 33.2617 254.763 30.962C254.391 30.2949 254.055 29.5579 253.762 28.7622C255.508 29.1943 257.426 29.4492 259.439 29.4886V34.8775ZM263.938 34.3652C264.789 33.609 265.544 32.6246 266.181 31.4845C266.695 30.5637 267.141 29.5278 267.505 28.4019C268.648 28.0432 269.7 27.6043 270.635 27.0978C271.792 26.4708 272.792 25.7267 273.559 24.8882C272.215 29.4474 268.566 33.0411 263.938 34.3652ZM266.218 28.7622C265.925 29.5579 265.588 30.2949 265.216 30.962C263.932 33.2617 262.278 34.6367 260.54 34.8775V29.4886C262.553 29.4492 264.472 29.1943 266.218 28.7622ZM267.871 27.1342C268.678 26.8456 269.427 26.5146 270.104 26.1477C272.439 24.8829 273.835 23.2535 274.08 21.5422H268.608C268.568 23.525 268.309 25.4143 267.871 27.1342ZM267.507 21.5422C267.462 23.706 267.146 25.7374 266.622 27.5324C264.8 28.0478 262.737 28.3593 260.54 28.4041V26.0636C261.36 23.9963 263.032 22.3493 265.13 21.5422H267.507ZM268.608 20.4578H274.08C273.835 18.7465 272.439 17.1171 270.104 15.8523C269.427 15.4854 268.678 15.1544 267.871 14.8658C268.309 16.5857 268.568 18.475 268.608 20.4578ZM266.622 14.4677C267.146 16.2626 267.462 18.294 267.507 20.4578H265.13C263.032 19.6507 261.36 18.0037 260.54 15.9364V13.5959C262.737 13.6407 264.8 13.9523 266.622 14.4677ZM267.505 13.5981C268.648 13.9568 269.7 14.3957 270.635 14.9022C271.792 15.5292 272.792 16.2733 273.559 17.1118C272.215 12.5526 268.566 8.95892 263.938 7.63483C264.789 8.39096 265.544 9.37544 266.181 10.5155C266.695 11.4363 267.141 12.4722 267.505 13.5981ZM260.54 7.12244C262.278 7.36327 263.932 8.73831 265.216 11.0381C265.588 11.7051 265.925 12.4421 266.218 13.2378C264.472 12.8056 262.553 12.5508 260.54 12.5114V7.12244Z" fill="#636363"/>
</g>
<g clip-path="url(#clip1_2_149)">
<path fill-rule="evenodd" clip-rule="evenodd" d="M19.23 14.764C17.9926 13.9399 16.5378 13.5 15.0495 13.5V6C18.026 6 20.9357 6.87974 23.4106 8.52796C25.8855 10.1762 27.8143 12.5189 28.9534 15.2597C30.0925 18.0006 30.3905 21.0167 29.8098 23.9263C29.2291 26.8361 27.7958 29.5088 25.6911 31.6066C23.5864 33.7044 20.9048 35.133 17.9855 35.7118C15.0662 36.2906 12.0402 35.9935 9.29029 34.8582C6.54036 33.7229 4.18996 31.8003 2.5363 29.3335C0.882639 26.8668 0 23.9667 0 21H7.52475C7.52475 22.4834 7.96608 23.9334 8.7929 25.1668C9.61972 26.4002 10.7949 27.3614 12.1699 27.9291C13.5449 28.4968 15.0579 28.6453 16.5175 28.3559C17.9772 28.0665 19.3179 27.3522 20.3703 26.3033C21.4227 25.2544 22.1393 23.918 22.4296 22.4632C22.72 21.0083 22.571 19.5003 22.0015 18.1299C21.4319 16.7594 20.4675 15.5881 19.23 14.764Z" fill="#636363"/>
<path fill-rule="evenodd" clip-rule="evenodd" d="M7.52475 6C7.52475 6.98492 7.33012 7.96019 6.95196 8.87013C6.57381 9.78007 6.01954 10.6069 5.3208 11.3033C4.62207 11.9997 3.79255 12.5522 2.8796 12.9291C1.96665 13.306 0.988161 13.5 3.28914e-07 13.5L0 21C1.97633 21 3.9333 20.612 5.7592 19.8582C7.5851 19.1044 9.24415 17.9995 10.6416 16.6066C12.0391 15.2138 13.1476 13.5602 13.9039 11.7403C14.6602 9.92037 15.0495 7.96983 15.0495 6L7.52475 6Z" fill="#636363"/>
<path d="M94.5252 16.8394H90.8741V28.3986H94.5252V16.8394Z" fill="#636363"/>
<path d="M91.2805 14.6749C91.662 15.0555 92.1391 15.2458 92.7117 15.2458C93.2843 15.2458 93.7539 15.0555 94.1196 14.6749C94.4861 14.2786 94.6689 13.8028 94.6689 13.2479C94.6689 12.6771 94.4861 12.2014 94.1196 11.8208C93.7539 11.4403 93.2843 11.25 92.7117 11.25C92.1391 11.25 91.662 11.4403 91.2805 11.8208C90.914 12.2014 90.7312 12.6771 90.7312 13.2479C90.7312 13.8028 90.914 14.2786 91.2805 14.6749Z" fill="#636363"/>
<path d="M38.4938 28.3986V11.6068H42.2403V25.1164H49.7094V28.3986H38.4938Z" fill="#636363"/>
<path fill-rule="evenodd" clip-rule="evenodd" d="M56.4563 28.6602C55.2631 28.6602 54.1814 28.3986 53.2109 27.8753C52.2564 27.3362 51.5008 26.6068 50.9439 25.6871C50.3872 24.7675 50.1088 23.7368 50.1088 22.5952C50.1088 21.4535 50.3872 20.4308 50.9439 19.527C51.5008 18.6232 52.2564 17.9096 53.2109 17.3864C54.1654 16.8472 55.2473 16.5777 56.4563 16.5777C57.6653 16.5777 58.7471 16.8394 59.7016 17.3626C60.6561 17.8858 61.4118 18.6073 61.9686 19.527C62.5254 20.4308 62.8038 21.4535 62.8038 22.5952C62.8038 23.7368 62.5254 24.7675 61.9686 25.6871C61.4118 26.6068 60.6561 27.3362 59.7016 27.8753C58.7471 28.3986 57.6653 28.6602 56.4563 28.6602ZM56.4563 25.3542C56.9813 25.3542 57.4426 25.2432 57.8404 25.0212C58.2381 24.7834 58.5403 24.4583 58.7471 24.046C58.9698 23.6179 59.0812 23.1343 59.0812 22.5952C59.0812 22.0561 58.9698 21.5883 58.7471 21.1919C58.5244 20.7796 58.2142 20.4625 57.8164 20.2405C57.4346 20.0026 56.9813 19.8838 56.4563 19.8838C55.9472 19.8838 55.4939 20.0026 55.0961 20.2405C54.6984 20.4625 54.3882 20.7796 54.1654 21.1919C53.9427 21.6042 53.8314 22.0798 53.8314 22.6189C53.8314 23.1422 53.9427 23.6179 54.1654 24.046C54.3882 24.4583 54.6984 24.7834 55.0961 25.0212C55.4939 25.2432 55.9472 25.3542 56.4563 25.3542Z" fill="#636363"/>
<path fill-rule="evenodd" clip-rule="evenodd" d="M65.6954 32.9177C66.6658 33.3616 67.7874 33.5836 69.0601 33.5836C70.301 33.5836 71.4066 33.3378 72.377 32.8463C73.3475 32.3547 74.111 31.673 74.6679 30.8009C75.2246 29.9288 75.5034 28.8981 75.5034 27.7089V16.8394H71.9236V17.616C71.6574 17.3927 71.355 17.2052 71.0169 17.0535C70.3964 16.7522 69.6884 16.6015 68.8931 16.6015C67.8272 16.6015 66.8806 16.8552 66.0534 17.3626C65.226 17.8542 64.5739 18.536 64.0966 19.4081C63.6193 20.2644 63.3807 21.2316 63.3807 22.3098C63.3807 23.3722 63.6193 24.3394 64.0966 25.2115C64.5739 26.0836 65.226 26.7734 66.0534 27.2808C66.8806 27.7881 67.8272 28.0419 68.8931 28.0419C69.6726 28.0419 70.3805 27.8913 71.0169 27.59C71.3251 27.444 71.6035 27.2721 71.852 27.074V27.804C71.852 28.6127 71.5896 29.239 71.0646 29.683C70.5555 30.127 69.8476 30.3489 68.9408 30.3489C68.209 30.3489 67.5806 30.2221 67.0556 29.9684C66.5465 29.7147 66.0851 29.3421 65.6715 28.8505L63.4284 31.0863C63.9852 31.8791 64.7409 32.4896 65.6954 32.9177ZM70.8975 24.4742C70.5316 24.6962 70.0942 24.8072 69.585 24.8072C69.076 24.8072 68.6305 24.6962 68.2487 24.4742C67.8828 24.2522 67.5965 23.9509 67.3897 23.5704C67.1828 23.174 67.0795 22.7538 67.0795 22.3098C67.0795 21.8341 67.1828 21.406 67.3897 21.0255C67.5965 20.6449 67.8908 20.3436 68.2726 20.1216C68.6544 19.8996 69.0919 19.7886 69.585 19.7886C70.0942 19.7886 70.5316 19.8996 70.8975 20.1216C71.2793 20.3436 71.5656 20.6449 71.7566 21.0255C71.9634 21.406 72.0668 21.8341 72.0668 22.3098C72.0668 22.7855 71.9634 23.2136 71.7566 23.5941C71.5656 23.9589 71.2793 24.2522 70.8975 24.4742Z" fill="#636363"/>
<path fill-rule="evenodd" clip-rule="evenodd" d="M83.1869 28.6602C81.9934 28.6602 80.9114 28.3986 79.9414 27.8753C78.9866 27.3362 78.2311 26.6068 77.6742 25.6871C77.1174 24.7675 76.839 23.7368 76.839 22.5952C76.839 21.4535 77.1174 20.4308 77.6742 19.527C78.2311 18.6232 78.9866 17.9096 79.9414 17.3864C80.8956 16.8472 81.9776 16.5777 83.1869 16.5777C84.3953 16.5777 85.4774 16.8394 86.4315 17.3626C87.3864 17.8858 88.1419 18.6073 88.6988 19.527C89.2556 20.4308 89.534 21.4535 89.534 22.5952C89.534 23.7368 89.2556 24.7675 88.6988 25.6871C88.1419 26.6068 87.3864 27.3362 86.4315 27.8753C85.4774 28.3986 84.3953 28.6602 83.1869 28.6602ZM83.1869 25.3542C83.7113 25.3542 84.1726 25.2432 84.5707 25.0212C84.968 24.7834 85.2705 24.4583 85.4774 24.046C85.7001 23.6179 85.8115 23.1343 85.8115 22.5952C85.8115 22.0561 85.7001 21.5883 85.4774 21.1919C85.2547 20.7796 84.9447 20.4625 84.5466 20.2405C84.1651 20.0026 83.7113 19.8838 83.1869 19.8838C82.6774 19.8838 82.2237 20.0026 81.8264 20.2405C81.4283 20.4625 81.1183 20.7796 80.8956 21.1919C80.6728 21.6042 80.5615 22.0798 80.5615 22.6189C80.5615 23.1422 80.6728 23.6179 80.8956 24.046C81.1183 24.4583 81.4283 24.7834 81.8264 25.0212C82.2237 25.2432 82.6774 25.3542 83.1869 25.3542Z" fill="#636363"/>
<path fill-rule="evenodd" clip-rule="evenodd" d="M103.301 28.6365C102.522 28.6365 101.805 28.4859 101.153 28.1846C100.81 28.026 100.5 27.8367 100.223 27.6167V33.2745H96.6194V16.8394H100.27V17.6372C100.535 17.4213 100.829 17.2346 101.153 17.0772C101.805 16.7601 102.522 16.6015 103.301 16.6015C104.398 16.6015 105.369 16.8632 106.212 17.3865C107.071 17.9097 107.739 18.6232 108.217 19.527C108.71 20.4309 108.956 21.4615 108.956 22.619C108.956 23.7765 108.71 24.8072 108.217 25.711C107.739 26.6148 107.071 27.3283 106.212 27.8516C105.369 28.3749 104.398 28.6365 103.301 28.6365ZM102.633 25.3542C103.158 25.3542 103.611 25.2353 103.993 24.9975C104.391 24.7596 104.701 24.4345 104.924 24.0223C105.146 23.61 105.258 23.1423 105.258 22.619C105.258 22.0799 105.146 21.6042 104.924 21.192C104.701 20.7797 104.391 20.4626 103.993 20.2406C103.611 20.0027 103.166 19.8838 102.657 19.8838C102.148 19.8838 101.694 20.0027 101.297 20.2406C100.915 20.4626 100.613 20.7797 100.39 21.192C100.167 21.6042 100.056 22.0799 100.056 22.619C100.056 23.1423 100.159 23.61 100.366 24.0223C100.589 24.4345 100.899 24.7596 101.297 24.9975C101.694 25.2353 102.14 25.3542 102.633 25.3542Z" fill="#636363"/>
<path d="M112.53 28.4223C113.198 28.5968 113.874 28.6839 114.558 28.6839C116.005 28.6839 117.151 28.351 117.994 27.685C118.853 27.0191 119.282 26.1232 119.282 24.9974C119.282 24.268 119.148 23.6813 118.877 23.2374C118.607 22.7775 118.257 22.4128 117.827 22.1433C117.397 21.8737 116.944 21.6596 116.467 21.501C115.99 21.3425 115.536 21.2077 115.107 21.0967C114.677 20.9857 114.327 20.8589 114.056 20.7162C113.786 20.5734 113.651 20.3832 113.651 20.1453C113.651 19.9233 113.755 19.7568 113.961 19.6458C114.168 19.519 114.478 19.4556 114.892 19.4556C115.321 19.4556 115.759 19.5428 116.204 19.7172C116.665 19.8916 117.079 20.193 117.445 20.6211L119.521 18.528C118.996 17.862 118.312 17.3625 117.469 17.0296C116.642 16.6808 115.735 16.5063 114.749 16.5063C113.81 16.5063 112.991 16.6649 112.291 16.982C111.591 17.2992 111.05 17.7352 110.668 18.2901C110.287 18.8292 110.095 19.4715 110.095 20.2167C110.095 20.9144 110.231 21.4932 110.501 21.953C110.771 22.3969 111.122 22.7458 111.551 22.9995C111.98 23.2532 112.434 23.4514 112.911 23.5941C113.388 23.7368 113.842 23.8716 114.272 23.9985C114.701 24.1095 115.051 24.2442 115.321 24.4028C115.608 24.5455 115.751 24.7596 115.751 25.0449C115.751 25.2669 115.631 25.4413 115.393 25.5682C115.17 25.695 114.844 25.7585 114.415 25.7585C113.794 25.7585 113.221 25.6475 112.697 25.4255C112.171 25.1877 111.718 24.8626 111.336 24.4503L109.26 26.5434C109.658 26.9715 110.135 27.3521 110.692 27.685C111.265 28.0021 111.877 28.2479 112.53 28.4223Z" fill="#636363"/>
<path d="M125.94 28.6602C124.875 28.6602 123.928 28.4461 123.101 28.018C122.289 27.574 121.653 26.9715 121.192 26.2104C120.73 25.4335 120.5 24.5455 120.5 23.5465V16.8394H124.151V23.499C124.151 23.8954 124.214 24.2363 124.342 24.5217C124.485 24.8071 124.692 25.0291 124.962 25.1877C125.233 25.3462 125.559 25.4255 125.94 25.4255C126.481 25.4255 126.911 25.259 127.229 24.926C127.548 24.5772 127.706 24.1015 127.706 23.499V16.8394H131.357V23.5228C131.357 24.5376 131.127 25.4335 130.665 26.2104C130.204 26.9715 129.568 27.574 128.756 28.018C127.945 28.4461 127.007 28.6602 125.94 28.6602Z" fill="#636363"/>
<path d="M136.823 16.8394H133.172V28.3986H136.823V21.6438C136.823 21.2475 136.903 20.9145 137.062 20.6449C137.237 20.3754 137.468 20.1692 137.754 20.0265C138.041 19.8679 138.367 19.7886 138.732 19.7886C139.258 19.7886 139.695 19.9551 140.045 20.2881C140.411 20.6052 140.594 21.0572 140.594 21.6438V28.3986H144.245V21.6438C144.245 21.2475 144.325 20.9145 144.484 20.6449C144.659 20.3754 144.889 20.1692 145.176 20.0265C145.462 19.8679 145.788 19.7886 146.154 19.7886C146.679 19.7886 147.116 19.9551 147.466 20.2881C147.832 20.6052 148.015 21.0572 148.015 21.6438V28.3986H151.667V21.2395C151.667 20.2723 151.46 19.4478 151.046 18.7659C150.648 18.0682 150.099 17.5371 149.399 17.1724C148.715 16.7918 147.928 16.6015 147.037 16.6015C146.13 16.6015 145.311 16.7997 144.579 17.1962C144.104 17.4487 143.688 17.7747 143.332 18.174C143 17.7563 142.597 17.4145 142.121 17.1486C141.485 16.7839 140.761 16.6015 139.95 16.6015C139.091 16.6015 138.319 16.7839 137.635 17.1486C137.337 17.3003 137.067 17.482 136.823 17.6937V16.8394Z" fill="#636363"/>
</g>
<g clip-path="url(#clip2_2_149)">
<path fill-rule="evenodd" clip-rule="evenodd" d="M441.515 6.26278C441.515 5.11061 442.47 4.17657 443.648 4.17657H447.364C448.203 4.17657 449.015 4.46076 449.663 4.98077L450.794 5.88739L450.822 5.91261C450.848 5.904 450.874 5.89559 450.901 5.88739C452.94 5.24853 455.414 5.12703 457.94 5.12703C460.465 5.12703 462.94 5.24853 464.979 5.88739C465.005 5.89559 465.031 5.904 465.057 5.91261L465.086 5.88739L466.216 4.98077C466.864 4.46076 467.677 4.17657 468.515 4.17657H472.231C473.409 4.17657 474.364 5.11061 474.364 6.26278V7.55244C474.364 8.55026 473.935 9.50192 473.18 10.174L472.269 10.9866C471.823 11.3834 471.289 11.6721 470.709 11.8295L470.493 11.888C471.338 13.86 471.805 15.9678 471.805 17.673C471.805 24.5322 467.465 27.4946 463.642 30.1048C460.631 32.1603 457.94 33.9974 457.94 37.3473C457.94 33.9974 455.249 32.1603 452.238 30.1048C448.414 27.4946 444.075 24.5322 444.075 17.673C444.075 15.9678 444.541 13.86 445.386 11.888L445.171 11.8295C444.59 11.6721 444.056 11.3834 443.611 10.9866L442.699 10.174C441.945 9.50192 441.515 8.55026 441.515 7.55244V6.26278ZM460.713 23.2806C460.713 23.6084 460.567 23.9226 460.307 24.1543C460.047 24.386 459.694 24.5162 459.326 24.5162C459.009 24.5162 458.702 24.4191 458.457 24.2435C458.875 25.3356 459.942 26.3705 461.566 24.7063C462.999 23.16 461.502 19.8985 460.044 17.9632C459.557 17.3181 458.759 17.0076 457.94 17.0076C457.12 17.0076 456.322 17.3181 455.836 17.9632C454.377 19.8985 452.88 23.16 454.313 24.7063C455.937 26.3705 457.005 25.3356 457.422 24.2435C457.177 24.4191 456.871 24.5162 456.553 24.5162C456.185 24.5162 455.833 24.386 455.573 24.1543C455.313 23.9226 455.167 23.6084 455.167 23.2806H460.713ZM452.63 13.6262H448.768L451.812 16.0101C452.481 16.5346 453.461 16.3669 453.875 15.6567C454.398 14.7599 453.703 13.6262 452.63 13.6262ZM463.249 13.6262H467.112L464.068 16.0101C463.398 16.5346 462.419 16.3669 462.004 15.6567C461.481 14.7599 462.176 13.6262 463.249 13.6262Z" fill="#636363"/>
<path d="M478.966 27.6725H482.388V14.9101H478.966V27.6725ZM478.966 12.9198H482.388V9.8847H478.966V12.9198Z" fill="#636363"/>
<path d="M484.593 31.8521H488.015V26.2296H488.065C488.795 27.3243 489.977 28.0457 491.789 28.0457C495.11 28.0457 497.375 25.4335 497.375 21.3038C497.375 17.3233 495.186 14.5618 491.764 14.5618C490.002 14.5618 488.795 15.3828 487.964 16.5023H487.889V14.9101H484.593V31.8521ZM491.059 25.2345C489.021 25.2345 487.939 23.717 487.939 21.4033C487.939 19.1145 488.795 17.2984 490.933 17.2984C493.047 17.2984 493.902 18.9901 493.902 21.4033C493.902 23.8165 492.795 25.2345 491.059 25.2345Z" fill="#636363"/>
<path d="M504.201 28.0457C507.422 28.0457 509.636 26.5033 509.636 23.9409C509.636 20.9555 507.245 20.3584 505.082 19.9106C503.245 19.5374 501.534 19.4379 501.534 18.3433C501.534 17.4228 502.414 16.9252 503.748 16.9252C505.207 16.9252 506.088 17.4228 506.239 18.7911H509.334C509.082 16.2287 507.195 14.5618 503.798 14.5618C500.854 14.5618 498.54 15.8804 498.54 18.6418C498.54 21.4282 500.804 22.0501 503.119 22.4979C504.88 22.8462 506.516 22.9706 506.516 24.1896C506.516 25.0852 505.66 25.6574 504.151 25.6574C502.616 25.6574 501.559 25.0106 501.333 23.5428H498.162C498.364 26.2545 500.452 28.0457 504.201 28.0457Z" fill="#636363"/>
<path d="M522.628 27.6725V14.9101H519.206V22.274C519.206 23.9657 518.225 25.1599 516.615 25.1599C515.155 25.1599 514.476 24.3389 514.476 22.8462V14.9101H511.079V23.4184C511.079 26.2047 512.689 28.0208 515.558 28.0208C517.369 28.0208 518.376 27.3491 519.257 26.1799H519.332V27.6725H522.628Z" fill="#636363"/>
<path d="M524.842 27.6726H528.263V20.2589C528.263 18.5672 529.194 17.4726 530.578 17.4726C531.836 17.4726 532.566 18.2189 532.566 19.6618V27.6726H535.988V20.2589C535.988 18.5672 536.869 17.4726 538.303 17.4726C539.561 17.4726 540.291 18.2189 540.291 19.6618V27.6726H543.713V19.0896C543.713 16.3033 542.178 14.5618 539.46 14.5618C537.825 14.5618 536.466 15.4077 535.585 16.8009H535.535C534.906 15.4574 533.598 14.5618 531.962 14.5618C530.176 14.5618 528.918 15.4574 528.213 16.6267H528.138V14.9101H524.842V27.6726Z" fill="#636363"/>
<path d="M392.574 27.6725H395.996V9.8847H392.574V27.6725Z" fill="#636363"/>
<path d="M404.363 28.0457C408.363 28.0457 411.106 25.1101 411.106 21.3038C411.106 17.4974 408.363 14.5618 404.363 14.5618C400.362 14.5618 397.62 17.4974 397.62 21.3038C397.62 25.1101 400.362 28.0457 404.363 28.0457ZM404.363 25.4584C402.249 25.4584 401.092 23.7916 401.092 21.3038C401.092 18.816 402.249 17.1243 404.363 17.1243C406.451 17.1243 407.634 18.816 407.634 21.3038C407.634 23.7916 406.451 25.4584 404.363 25.4584Z" fill="#636363"/>
<path d="M418.383 32.0262C420.295 32.0262 421.956 31.5784 423.038 30.5833C423.994 29.7126 424.573 28.4935 424.573 26.7023V14.9101H421.277V16.2535H421.226C420.446 15.1838 419.264 14.5618 417.653 14.5618C414.382 14.5618 412.068 16.9999 412.068 20.8062C412.068 24.6623 414.886 26.9013 417.754 26.9013C419.39 26.9013 420.371 26.2545 421.126 25.4087H421.201V26.8018C421.201 28.5433 420.27 29.4638 418.333 29.4638C416.748 29.4638 416.018 28.8418 415.741 28.0457H412.344C412.697 30.5335 414.861 32.0262 418.383 32.0262ZM418.333 24.1896C416.571 24.1896 415.414 22.9209 415.414 20.7565C415.414 18.617 416.571 17.2735 418.308 17.2735C420.371 17.2735 421.377 18.8657 421.377 20.7316C421.377 22.6223 420.497 24.1896 418.333 24.1896Z" fill="#636363"/>
<path d="M432.89 28.0457C436.891 28.0457 439.634 25.1101 439.634 21.3038C439.634 17.4974 436.891 14.5618 432.89 14.5618C428.89 14.5618 426.147 17.4974 426.147 21.3038C426.147 25.1101 428.89 28.0457 432.89 28.0457ZM432.89 25.4584C430.777 25.4584 429.619 23.7916 429.619 21.3038C429.619 18.816 430.777 17.1243 432.89 17.1243C434.979 17.1243 436.161 18.816 436.161 21.3038C436.161 23.7916 434.979 25.4584 432.89 25.4584Z" fill="#636363"/>
<path d="M543.558 12.1237C543.558 11.5512 544.027 11.0872 544.607 11.0872H546.703C547.282 11.0872 547.752 11.5512 547.752 12.1237C547.752 12.6962 547.282 13.1603 546.703 13.1603H544.607C544.027 13.1603 543.558 12.6962 543.558 12.1237Z" fill="#636363"/>
</g>
<defs>
<clipPath id="clip0_2_149">
<rect width="166" height="30" fill="white" transform="translate(189 6)"/>
</clipPath>
<clipPath id="clip1_2_149">
<rect width="152" height="30" fill="white" transform="translate(0 6)"/>
</clipPath>
<clipPath id="clip2_2_149">
<rect width="156" height="34" fill="white" transform="translate(392 4)"/>
</clipPath>
</defs>
</svg>
